#!OML:ASF F:\VICON\USERDATA\INSTALL\rory3\rory3.ASF
:FULLY-SPECIFIED
:DEGREES
1
root 0.0265202 16.2134 -25.4911 0.434917 -2.05064 5.16773
lowerback 13.8853 0.636769 -9.00563
upperback -4.1066 -0.706888 1.13951
thorax -12.3257 0.417864 6.55373
lowerneck -9.03167 -4.69675 -2.89357
upperneck 17.859 -6.37147 1.98293
head 7.10797 -3.08946 0.553542
rclavicle 2.43511e-015 3.97569e-015
rhumerus -39.7789 -1.21559 -82.324
rradius 31.7378
rwrist 0.253266
rhand -9.50368 18.7611
rfingers 7.12502
rthumb 16.4615 -10.5605
lclavicle 2.43511e-015 3.97569e-015
lhumerus -27.4574 2.71111 85.7239
lradius 25.5218
lwrist 4.05263
lhand -6.29368 19.1013
lfingers 7.12502
lthumb 19.55 48.1384
rfemur -33.4346 4.39129 14.5885
rtibia 52.2675
rfoot -9.14374 -6.08813
rtoes -10.4433
lfemur -1.45326 -12.6384 -33.9221
ltibia 22.317
lfoot -16.8723 10.0168
ltoes 15.625
2
root 0.0270631 16.2177 -25.3942 0.666568 -2.22516 5.16895
lowerback 14.064 0.569335 -9.25205
upperback -4.38004 -0.853233 1.33067
thorax -12.7251 0.411333 6.9571
lowerneck -8.70938 -4.47387 -3.31707
upperneck 17.9305 -6.04634 2.18378
head 7.0858 -2.94769 0.723811
rclavicle -1.22253e-014 -7.15625e-015
rhumerus -40.1455 -1.29032 -81.9668
rradius 30.9333
rwrist 0.718582
rhand -9.4333 19.1309
rfingers 7.12502
rthumb 16.5293 -10.1851
lclavicle -1.22253e-014 -7.15625e-015
lhumerus -28.0729 2.99215 85.9165
lradius 26.1448
lwrist 4.09336
lhand -6.37136 18.6
lfingers 7.12502
lthumb 19.4753 47.6446
rfemur -33.7715 5.14999 14.3716
rtibia 49.9202
rfoot -8.37797 -6.5586
rtoes -11.7325
lfemur -0.806924 -12.5814 -33.9779
ltibia 21.4069
lfoot -16.9265 10.0067
ltoes 15.643
3
root 0.028095 16.2206 -25.2848 0.721885 -2.2087 5.30278
lowerback 13.9274 0.514626 -9.35306
upperback -4.29182 -0.931831 1.29711
thorax -12.5249 0.365661 6.98999
lowerneck -8.9687 -4.44098 -3.47762
upperneck 18.0479 -6.01016 2.39516
head 7.18051 -2.91938 0.814025
rclavicle -1.22253e-014 -5.56597e-015
rhumerus -40.2914 -1.60066 -81.7976
rradius 30.4895
rwrist 0.883138
rhand -9.53139 18.9444
rfingers 7.12502
rthumb 16.4349 -10.3794
lclavicle -1.22253e-014 -5.56597e-015
lhumerus -27.9552 2.83538 86.0402
lradius 26.5031
lwrist 4.07909
lhand -6.62945 17.7941
lfingers 7.12502
lthumb 19.2272 46.8636
rfemur -33.8266 5.8553 13.9794
rtibia 47.6411
rfoot -7.61834 -7.02102
rtoes -11.2355
lfemur 0.339708 -12.6428 -34.2354
ltibia 20.095
lfoot -16.7232 10.0978
ltoes 15.1345
4
root 0.0277602 16.2278 -25.1698 0.787558 -1.87084 5.33874
lowerback 13.7306 0.402863 -9.20758
upperback -4.11549 -1.03972 1.17616
thorax -12.1805 0.270555 6.78535
lowerneck -9.37733 -4.47002 -3.30811
upperneck 17.887 -6.0868 2.53867
head 7.20199 -2.92812 0.81734
rclavicle -1.19768e-014 2.38542e-015
rhumerus -40.3286 -2.50394 -81.5314
rradius 30.0334
rwrist 1.46148
rhand -9.61497 18.753
rfingers 7.12502
rthumb 16.3544 -10.5775
lclavicle -1.19768e-014 2.38542e-015
lhumerus -27.5258 2.742 85.9777
lradius 26.9191
lwrist 4.02803
lhand -6.39537 17.3011
lfingers 7.12502
lthumb 19.4522 46.3481
rfemur -33.6604 6.44485 13.642
rtibia 45.2758
rfoot -7.11879 -7.53366
rtoes -10.8527
lfemur 1.46199 -12.8085 -34.35
ltibia 18.8806
lfoot -16.4966 10.0861
ltoes 14.6227
5
root 0.0271673 16.2387 -25.0582 0.882042 -1.5381 5.5121
lowerback 13.7406 0.239608 -9.46147
upperback -4.24715 -1.30778 1.23425
thorax -12.2865 0.17785 7.06239
lowerneck -8.84692 -4.4416 -3.48338
upperneck 17.5958 -6.03453 2.58131
head 7.01922 -2.91885 0.87941
rclavicle -7.1811e-015 3.97569e-015
rhumerus -40.8335 -2.78344 -81.1096
rradius 29.5012
rwrist 1.88571
rhand -9.60988 18.9496
rfingers 7.12502
rthumb 16.3593 -10.3804
lclavicle -7.1811e-015 3.97569e-015
lhumerus -27.8267 2.67735 86.1539
lradius 27.5621
lwrist 4.23838
lhand -6.20207 17.6008
lfingers 7.12502
lthumb 19.6381 46.6289
rfemur -33.5788 7.09035 13.0833
rtibia 42.934
rfoot -6.46019 -8.10307
rtoes -11.9948
lfemur 2.50962 -12.9802 -34.5828
ltibia 17.6754
lfoot -16.317 10.006
ltoes 14.7371
6
root 0.0216508 16.2391 -24.9623 1.16394 -1.9727 5.46964
lowerback 13.6488 0.324824 -9.65605
upperback -4.44508 -1.21773 1.3397
thorax -12.4786 0.260165 7.2744
lowerneck -8.33164 -4.40023 -3.66373
upperneck 17.3912 -5.97792 2.67694
head 6.86926 -2.90245 0.958214
rclavicle 9.83984e-015 -1.43125e-014
rhumerus -41.3607 -3.06867 -80.7037
rradius 28.9664
rwrist 2.30316
rhand -9.55486 18.939
rfingers 7.12502
rthumb 16.4123 -10.3866
lclavicle 9.83984e-015 -1.43125e-014
lhumerus -28.0353 2.43546 86.366
lradius 28.1029
lwrist 4.48164
lhand -6.11223 18.1288
lfingers 7.12502
lthumb 19.7245 47.148
rfemur -33.94 8.42163 12.6772
rtibia 40.5544
rfoot -5.77201 -8.68611
rtoes -10.5968
lfemur 3.18077 -12.7911 -34.5771
ltibia 16.5865
lfoot -16.2745 10.1914
ltoes 14.677
7
root 0.0149178 16.2354 -24.8634 1.44136 -2.08828 5.41866
lowerback 13.6091 0.404522 -9.62835
upperback -4.4895 -1.10738 1.3041
thorax -12.5294 0.312679 7.19193
lowerneck -8.5403 -4.43862 -3.47824
upperneck 17.2895 -6.04986 2.6831
head 6.86982 -2.92244 0.919627
rclavicle 1.36664e-014 -7.95139e-015
rhumerus -41.6432 -3.97373 -80.3092
rradius 28.4969
rwrist 2.84721
rhand -9.4213 18.4645
rfingers 7.12502
rthumb 16.5409 -10.8505
lclavicle 1.36664e-014 -7.95139e-015
lhumerus -27.8276 1.71944 86.5798
lradius 28.607
lwrist 5.0644
lhand -6.01874 18.4525
lfingers 7.12502
lthumb 19.8143 47.4626
rfemur -34.0466 9.61694 12.21
rtibia 38.2338
rfoot -5.59986 -9.34298
rtoes -8.28546
lfemur 3.95108 -12.7547 -34.549
ltibia 15.4023
lfoot -16.0624 10.2702
ltoes 14.2111
8
root 0.00975627 16.2396 -24.754 1.55594 -2.1401 5.32196
lowerback 13.622 0.361913 -9.56568
upperback -4.50678 -1.14904 1.35649
thorax -12.5479 0.292659 7.22608
lowerneck -8.67624 -4.45277 -3.48795
upperneck 17.3094 -6.05875 2.65266
head 6.89985 -2.92824 0.907289
rclavicle 5.46658e-015 8.74653e-015
rhumerus -41.9791 -4.50857 -79.9524
rradius 27.9974
rwrist 3.52655
rhand -9.64942 19.5986
rfingers 7.12502
rthumb 16.3212 -9.73455
lclavicle 5.46658e-015 8.74653e-015
lhumerus -27.725 1.41595 86.69
lradius 29.0833
lwrist 5.58647
lhand -5.89841 18.6359
lfingers 7.12502
lthumb 19.93 47.6339
rfemur -33.9125 11.0508 11.7171
rtibia 35.9865
rfoot -5.78928 -10.3105
rtoes -7.07614
lfemur 4.91201 -12.8316 -34.5427
ltibia 14.3051
lfoot -15.8618 10.5738
ltoes 13.2407
9
root 0.00784283 16.2502 -24.6321 1.502 -1.32931 5.41532
lowerback 13.6967 0.0427268 -9.44058
upperback -4.4906 -1.56776 1.30964
thorax -12.4901 0.0788558 7.20086
lowerneck -8.41122 -4.51145 -3.62022
upperneck 17.1239 -6.15045 2.81135
head 6.80596 -2.97183 0.979124
rclavicle 1.74682e-014 -1.43125e-014
rhumerus -42.4138 -5.09211 -79.4927
rradius 27.412
rwrist 4.27785
rhand -10.0194 21.9713
rfingers 7.12502
rthumb 15.965 -7.3908
lclavicle 1.74682e-014 -1.43125e-014
lhumerus -27.908 1.17692 86.7923
lradius 29.5714
lwrist 5.63647
lhand -5.8226 18.9014
lfingers 7.12502
lthumb 20.0029 47.8918
rfemur -33.4311 12.105 10.965
rtibia 33.9555
rfoot -6.41905 -11.6993
rtoes -7.12632
lfemur 6.42522 -13.3187 -34.7279
ltibia 12.7492
lfoot -15.3823 10.4711
ltoes 12.2456
10
root -0.0111033 16.241 -24.5281 1.92619 -2.44058 5.61957
lowerback 13.2008 0.509256 -9.93501
upperback -4.48611 -0.992563 1.18169
thorax -12.3054 0.370436 7.18945
lowerneck -8.55947 -4.62268 -3.46051
upperneck 16.8782 -6.33838 2.94844
head 6.75866 -3.04016 0.978858
rclavicle 3.08116e-015 -1.66979e-014
rhumerus -42.6936 -6.30862 -78.925
rradius 26.9519
rwrist 5.01354
rhand -10.0556 23.0261
rfingers 7.12502
rthumb 15.9301 -6.3388
lclavicle 3.08116e-015 -1.66979e-014
lhumerus -27.8222 0.810701 86.8788
lradius 30.0558
lwrist 5.2762
lhand -5.31739 19.5325
lfingers 7.12502
lthumb 20.4884 48.4715
rfemur -34.2875 13.9523 10.0986
rtibia 32.0871
rfoot -6.28221 -12.2846
rtoes -8.77955
lfemur 7.36394 -12.7052 -34.9923
ltibia 10.9621
lfoot -15.1005 10.9838
ltoes 11.3639
